<svg id="Capa_1" data-name="Capa 1" xmlns="http://www.w3.org/2000/svg" viewBox="0 0 1366 768"><defs><style>.cls-1,.cls-2{fill:none;stroke:#fc0;}.cls-1,.cls-2,.cls-4{stroke-miterlimit:10;}.cls-1{stroke-width:78px;}.cls-2{stroke-width:64px;}.cls-3{opacity:0.15;}.cls-4{stroke:#000;stroke-width:0.5px;}</style></defs><circle class="cls-1" cx="87.5" cy="256.5" r="267.5"/><circle class="cls-2" cx="1380.5" cy="712.5" r="226.5"/><g class="cls-3"><path class="cls-4" d="M213,153.83c-.54,1.28-1,2.47-1.35,3.58s-.65,2.18-.88,3.21q-1.51,4.5-2.71,9.12c-.8,3.08-1.59,6.24-2.37,9.45-.66,2.47-1.26,5-1.82,7.52s-1.14,5.13-1.77,7.77a5.46,5.46,0,0,1-4.32,4.53,5.27,5.27,0,0,1-3.17,0,7.85,7.85,0,0,1-2.84-1.7,16.25,16.25,0,0,1-2.9-4.26q-2.67-5.11-5.51-10.05a109.4,109.4,0,0,1-5.09-10,4.34,4.34,0,0,0-1.64-2.09,19.17,19.17,0,0,1,.41,4q1.07,6.51,2.1,13.17t2.11,13.18q.72,4.85,1.13,9.74t.77,9.95c.13,1.05.23,2.09.3,3.11s.14,2.1.2,3.26a4.76,4.76,0,0,1-.28,1.88,2.58,2.58,0,0,1-1.46,1.44,2.52,2.52,0,0,1-2.12.51,3.59,3.59,0,0,1-2.08-1.26,3.74,3.74,0,0,1-1-1.34c-.25-.53-.52-1.08-.82-1.65q-2-5.37-3.8-11a92.14,92.14,0,0,1-2.77-11.15q-2.33-12.59-3.92-24.93c-.31-2.81-.66-5.62-1.06-8.41s-.8-5.63-1.21-8.51q-.44-3.42-.69-6.94a53.64,53.64,0,0,1,0-7.06c0-.73.09-1.43.17-2.13a9.7,9.7,0,0,1,.46-2c1.1-2.93,3.16-4.29,6.16-4.1a8.87,8.87,0,0,1,5.06,1.65,14,14,0,0,1,3.36,3.89q4,6.45,7.5,13.21t7.17,13.55c.48,1,1,2,1.57,3.05s1.16,2.1,1.73,3.15a1.45,1.45,0,0,0,.9-1.2,6.81,6.81,0,0,1,.2-1.32,91.68,91.68,0,0,0,3.28-10.92q1.29-5.52,3.12-11,1.11-3.74,2.51-7.45c.92-2.49,1.9-5,2.92-7.41.17-.49.35-1,.53-1.66a10.44,10.44,0,0,0,.38-1.77,5.16,5.16,0,0,1,1.26-3.36,6,6,0,0,1,2.9-1.94,6.19,6.19,0,0,1,3.59.07,5.66,5.66,0,0,1,2.92,2.09,5.12,5.12,0,0,1,1.3,2c.3.84.58,1.63.83,2.39q.92,3.18,1.7,6.66c.53,2.31,1.07,4.63,1.64,6.94q1.72,8.4,3.13,16.87t2.5,17q.32,2.9,1,5.93c.42,2,.79,4.09,1.13,6.17.68,4.17,1.43,8.36,2.25,12.54s1.65,8.36,2.5,12.49q.58,2.85-1.6,4a3.18,3.18,0,0,1-4.15-1.16,14.79,14.79,0,0,1-2.28-4.52,47.39,47.39,0,0,1-1.89-5.88q-.75-3-1.6-5.8-1.47-5.22-2.72-10.63t-2.86-10.59q-2.29-7.89-4.08-15.88t-3.3-16c0-.17-.08-.39-.13-.64A10.6,10.6,0,0,0,213,153.83Z"/><path class="cls-4" d="M280.57,209.72a4.18,4.18,0,0,0-1,1.9,5.79,5.79,0,0,1-.76,1.84,26.82,26.82,0,0,1-2.11,4.14,11.27,11.27,0,0,1-3.23,3.3,9.08,9.08,0,0,1-7.27,1.7,8.93,8.93,0,0,1-6.18-4.19,25.47,25.47,0,0,1-4.47-13.5,29.44,29.44,0,0,1,3.3-13.75,14.69,14.69,0,0,1,5.2-5.86,13.9,13.9,0,0,1,7.73-2.06,1.48,1.48,0,0,1,.46,0,1.29,1.29,0,0,0,.47,0,2.55,2.55,0,0,0-.13-1.93,10.89,10.89,0,0,1-.75-1.66q-1.1-2.73-2.34-5.18a42.47,42.47,0,0,0-2.79-4.68c-1.49-2-2.67-3-3.52-3s-2,1-3.52,2.88A36.9,36.9,0,0,0,254,179.74a4.29,4.29,0,0,0-.5,2.8,3.51,3.51,0,0,1-4.22,4.37,5.2,5.2,0,0,1-2.36-1,7.9,7.9,0,0,1-2.33-5.45,24.59,24.59,0,0,1,.52-6,27.42,27.42,0,0,1,1.82-5.56,37.91,37.91,0,0,1,2.91-5.52,26.81,26.81,0,0,1,3.86-4.77,15,15,0,0,1,8.52-4.12,12.64,12.64,0,0,1,9.55,2.82,13.84,13.84,0,0,1,3.4,3.14c.93,1.2,1.84,2.48,2.74,3.82A75.64,75.64,0,0,1,282,172a78,78,0,0,1,3.22,8.1q1.85,5.69,3.53,11.26t3.28,11.32a31.06,31.06,0,0,1,1.41,6.86,6.39,6.39,0,0,1-2.1,6.16,5.87,5.87,0,0,1-6.3.82,4.92,4.92,0,0,1-2.26-1.82,14.13,14.13,0,0,1-1.34-2.56,6.63,6.63,0,0,1-.38-1.2A3.44,3.44,0,0,0,280.57,209.72ZM269,209q1.61-2.61,3.11-5.15a25,25,0,0,0,2.39-5.41,2.3,2.3,0,0,0-.45-1.87,3.25,3.25,0,0,0-1.69-1.33c-.69-.31-1.16-.28-1.39.08a3.31,3.31,0,0,1-1,.94,2,2,0,0,1-.28.6,2,2,0,0,0-.28.6,18.27,18.27,0,0,0-1.4,5.61A13.43,13.43,0,0,0,269,209Z"/><path class="cls-4" d="M328.51,204.3a20.07,20.07,0,0,0,3.69-5.61q1.67-3.72,3.23-7.54a51.19,51.19,0,0,0,2.51-7.79,6.31,6.31,0,0,1,.09-.9,2.06,2.06,0,0,0,0-.74c-.29-1.82.52-3.16,2.41-4a4.36,4.36,0,0,1,4.85,1.3,4.14,4.14,0,0,1,1.35,1.67,10.69,10.69,0,0,1,.64,2.09,36.75,36.75,0,0,1-.91,13.94,38.1,38.1,0,0,1-7.73,14.8,21.34,21.34,0,0,1-2.5,2.6,12,12,0,0,1-3,1.91,10.43,10.43,0,0,1-6.59.75,11.73,11.73,0,0,1-6-3.14,32.57,32.57,0,0,1-2.91-3.65,38.29,38.29,0,0,1-2.44-4,55.49,55.49,0,0,1-4.48-9.32q-1.81-4.87-3.5-9.79-2.52-7-4.65-14.41t-3.67-14.87c-.2-1-.4-1.49-.61-1.63s-.81,0-1.81.37-2.15,1-3.25,1.55a33.17,33.17,0,0,1-3.41,1.44,7.08,7.08,0,0,1-4.79.31,5.16,5.16,0,0,1-3.39-3.41,5.21,5.21,0,0,1,.66-4.65,11.09,11.09,0,0,1,3.42-3l4.32-2.24c1.42-.74,2.87-1.45,4.35-2.11a4.35,4.35,0,0,0,1.76-1,4,4,0,0,0,0-2.1,85.56,85.56,0,0,1-1.09-8.87,74.37,74.37,0,0,1-.05-9.09c.13-1.1.24-2.22.32-3.36a11.48,11.48,0,0,1,.73-3.32,23.64,23.64,0,0,1,1.17-2.2,6.46,6.46,0,0,1,1.53-1.73,5.22,5.22,0,0,1,5.37-1.37,3.86,3.86,0,0,1,2.07,1.86,6.69,6.69,0,0,1,.63,2.7,32.53,32.53,0,0,1,.12,5.84,31.49,31.49,0,0,0,.15,6c.16,1.67.31,3.35.43,5s.27,3.4.46,5.16c.16.78.31,1.22.47,1.32a3.05,3.05,0,0,0,1.53-.11q2.58-.54,4.88-1.14c1.54-.41,3.12-.78,4.76-1.12a9.63,9.63,0,0,1,8.06,1.85,5,5,0,0,1,1.54,1.23,5.45,5.45,0,0,1,.94,1.63,4.44,4.44,0,0,1-.64,4.1,3.08,3.08,0,0,1-3.32,1.56,2.61,2.61,0,0,1-.59.06,1.38,1.38,0,0,0-.7.21,15,15,0,0,1-5.57,2.09,34.11,34.11,0,0,0-5.83,1.47l-1.81.37a1.4,1.4,0,0,0-1.23,1.87,47.18,47.18,0,0,1,1.26,4.8c.33,1.59.7,3.2,1.13,4.82q1.56,6.28,3.51,12.48t4.26,12.2c.71,2.1,1.47,4.16,2.29,6.2s1.76,4.06,2.81,6.09a12.26,12.26,0,0,0,1.25,2.17C327.44,202.63,328,203.42,328.51,204.3Z"/><path class="cls-4" d="M358.93,137.39a5.45,5.45,0,0,1-6.68.3,5.36,5.36,0,0,1-1.72-2.48,6.13,6.13,0,0,1-.28-3.31,6.5,6.5,0,0,1,2-3.31,7.05,7.05,0,0,1,3.39-1.85,5,5,0,0,1,5.76,2.45,4.79,4.79,0,0,1,.85,3.13,5.63,5.63,0,0,1-1.3,3.17,5.35,5.35,0,0,1-.93,1.06A9.5,9.5,0,0,1,358.93,137.39ZM375.15,190a3.31,3.31,0,0,1-.88,4.22,4.31,4.31,0,0,1-4.76.44,6.1,6.1,0,0,1-2-1.75c-.5-.7-1-1.45-1.54-2.24-.5-1.15-1-2.35-1.48-3.6s-.93-2.46-1.36-3.63q-2.1-6.3-3.9-12.74a88.41,88.41,0,0,1-2.61-13c-.11-1-.18-2-.21-3a7,7,0,0,1,.59-3,5.5,5.5,0,0,1,1.32-2.42,4.53,4.53,0,0,1,2.49-1.32,4.72,4.72,0,0,1,4.91,2.22,11.36,11.36,0,0,1,2.2,4.8l3.67,17.84c.13,1.06.3,2.32.52,3.81s.5,3.08.85,4.81c.28,1.38.6,2.79.94,4.25S374.68,188.55,375.15,190Z"/></g></svg>